<svg width="40" height="40" viewBox="0 0 40 40" fill="none" xmlns="http://www.w3.org/2000/svg">
<path d="M20.0007 10.8281C21.1057 10.8281 22.1655 11.2671 22.9469 12.0485C23.7283 12.8299 24.1673 13.8897 24.1673 14.9948C24.1673 15.542 24.0595 16.0838 23.8502 16.5893C23.6408 17.0948 23.3338 17.5542 22.9469 17.9411C22.56 18.328 22.1007 18.6349 21.5952 18.8443C21.0896 19.0537 20.5478 19.1615 20.0007 19.1615C18.8956 19.1615 17.8358 18.7225 17.0544 17.9411C16.273 17.1597 15.834 16.0999 15.834 14.9948C15.834 13.8897 16.273 12.8299 17.0544 12.0485C17.8358 11.2671 18.8956 10.8281 20.0007 10.8281ZM20.0007 3.32812C23.0948 3.32813 26.0623 4.55729 28.2502 6.74521C30.4382 8.93314 31.6673 11.9006 31.6673 14.9948C31.6673 23.7448 20.0007 36.6615 20.0007 36.6615C20.0007 36.6615 8.33398 23.7448 8.33398 14.9948C8.33398 11.9006 9.56315 8.93314 11.7511 6.74521C13.939 4.55729 16.9065 3.32813 20.0007 3.32812ZM20.0007 6.66146C17.7905 6.66146 15.6709 7.53943 14.1081 9.10223C12.5453 10.665 11.6673 12.7847 11.6673 14.9948C11.6673 16.6615 11.6673 19.9948 20.0007 31.1781C28.334 19.9948 28.334 16.6615 28.334 14.9948C28.334 12.7847 27.456 10.665 25.8932 9.10223C24.3304 7.53943 22.2108 6.66146 20.0007 6.66146Z" fill="currentColor"/>
</svg>
