<svg width="40" height="40" viewBox="0 0 40 40" fill="none" xmlns="http://www.w3.org/2000/svg">
<path d="M20.0007 3.32812C29.2057 3.32812 36.6673 10.7898 36.6673 19.9948C36.6673 29.1998 29.2057 36.6615 20.0007 36.6615C10.7957 36.6615 3.33398 29.1998 3.33398 19.9948C3.33398 10.7898 10.7957 3.32812 20.0007 3.32812ZM20.0007 6.66146C16.4644 6.66146 13.073 8.06622 10.5726 10.5667C8.07208 13.0672 6.66732 16.4586 6.66732 19.9948C6.66732 23.531 8.07208 26.9224 10.5726 29.4229C13.073 31.9234 16.4644 33.3281 20.0007 33.3281C23.5369 33.3281 26.9283 31.9234 29.4287 29.4229C31.9292 26.9224 33.334 23.531 33.334 19.9948C33.334 16.4586 31.9292 13.0672 29.4287 10.5667C26.9283 8.06622 23.5369 6.66146 20.0007 6.66146ZM20.0007 9.99479C20.4089 9.99485 20.8029 10.1447 21.1079 10.416C21.413 10.6872 21.6079 11.061 21.6557 11.4665L21.6673 11.6615V19.3048L26.179 23.8165C26.4779 24.1164 26.6514 24.5188 26.6644 24.9421C26.6773 25.3653 26.5286 25.7776 26.2486 26.0953C25.9685 26.4129 25.5781 26.612 25.1565 26.6521C24.735 26.6923 24.314 26.5705 23.979 26.3115L23.8223 26.1731L18.8223 21.1731C18.5633 20.9139 18.3969 20.5765 18.349 20.2131L18.334 19.9948V11.6615C18.334 11.2194 18.5096 10.7955 18.8221 10.4829C19.1347 10.1704 19.5586 9.99479 20.0007 9.99479Z" fill="white"/>
</svg>
