<svg width="40" height="40" viewBox="0 0 40 40" fill="none" xmlns="http://www.w3.org/2000/svg">
<path d="M31.7513 8.17821C30.2231 6.63506 28.403 5.41149 26.3972 4.57882C24.3913 3.74615 22.2398 3.32102 20.068 3.32821C10.968 3.32821 3.5513 10.7449 3.5513 19.8449C3.5513 22.7615 4.31797 25.5949 5.7513 28.0949L3.41797 36.6615L12.168 34.3615C14.5846 35.6782 17.3013 36.3782 20.068 36.3782C29.168 36.3782 36.5846 28.9615 36.5846 19.8615C36.5846 15.4449 34.868 11.2949 31.7513 8.17821ZM20.068 33.5782C17.6013 33.5782 15.1846 32.9115 13.068 31.6615L12.568 31.3615L7.36797 32.7282L8.7513 27.6616L8.41797 27.1449C7.04721 24.9566 6.31951 22.427 6.31797 19.8449C6.31797 12.2782 12.4846 6.11155 20.0513 6.11155C23.718 6.11155 27.168 7.54488 29.7513 10.1449C31.0307 11.418 32.0445 12.9325 32.734 14.6004C33.4235 16.2684 33.775 18.0567 33.768 19.8615C33.8013 27.4282 27.6346 33.5782 20.068 33.5782ZM27.6013 23.3116C27.1846 23.1115 25.1513 22.1116 24.7846 21.9615C24.4013 21.8282 24.1346 21.7616 23.8513 22.1616C23.568 22.5782 22.7846 23.5116 22.5513 23.7782C22.318 24.0616 22.068 24.0949 21.6513 23.8782C21.2346 23.6782 19.9013 23.2282 18.3346 21.8282C17.1013 20.7282 16.2846 19.3782 16.0346 18.9615C15.8013 18.5449 16.0013 18.3282 16.218 18.1115C16.4013 17.9282 16.6346 17.6282 16.8346 17.3949C17.0346 17.1615 17.118 16.9782 17.2513 16.7115C17.3846 16.4282 17.318 16.1949 17.218 15.9949C17.118 15.7949 16.2846 13.7615 15.9513 12.9282C15.618 12.1282 15.268 12.2282 15.018 12.2115H14.218C13.9346 12.2115 13.5013 12.3115 13.118 12.7282C12.7513 13.1449 11.6846 14.1449 11.6846 16.1782C11.6846 18.2115 13.168 20.1782 13.368 20.4449C13.568 20.7282 16.2846 24.8949 20.418 26.6782C21.4013 27.1116 22.168 27.3616 22.768 27.5449C23.7513 27.8616 24.6513 27.8115 25.368 27.7115C26.168 27.5949 27.818 26.7115 28.1513 25.7449C28.5013 24.7782 28.5013 23.9615 28.3846 23.7782C28.268 23.5949 28.018 23.5115 27.6013 23.3116Z" fill="currentColor"/>
</svg>
