<svg width="78" height="69" viewBox="0 0 78 69" fill="none" xmlns="http://www.w3.org/2000/svg">
<path d="M49.5321 0C34.0732 0 21.5381 11.0478 21.5381 24.6795C21.5381 38.3042 34.0732 49.3519 49.5321 49.3519C64.9992 49.3519 77.5343 38.3042 77.5343 24.6795C77.5343 11.0478 64.9992 0 49.5321 0Z" fill="#D28147"/>
<path d="M28.0021 18.9844C12.5351 18.9844 0 30.0321 0 43.6568C0 57.2885 12.5351 68.3363 28.0021 68.3363C43.4611 68.3363 55.9962 57.2885 55.9962 43.6568C55.9962 30.0321 43.4611 18.9844 28.0021 18.9844Z" fill="#F6B059"/>
<path d="M24.7727 37.9598C21.7923 37.9598 19.3855 40.0882 19.3855 42.7077C19.3855 45.3273 21.7923 47.4557 24.7727 47.4557C27.7449 47.4557 30.1518 45.3273 30.1518 42.7077C30.1518 40.0882 27.7449 37.9598 24.7727 37.9598ZM29.0776 26.5703C27.2926 26.5703 25.8469 27.8445 25.8469 29.4177C25.8469 30.9908 27.2926 32.265 29.0776 32.265C30.8626 32.265 32.3083 30.9908 32.3083 29.4177C32.3083 27.8445 30.8626 26.5703 29.0776 26.5703ZM36.6132 49.3492C34.2386 49.3492 32.3083 51.0505 32.3083 53.1505C32.3083 55.2433 34.2386 56.9446 36.6132 56.9446C38.9959 56.9446 40.9262 55.2433 40.9262 53.1505C40.9262 51.0505 38.9959 49.3492 36.6132 49.3492ZM11.8498 43.6545C10.0649 43.6545 8.61914 44.9287 8.61914 46.5019C8.61914 48.075 10.0649 49.3492 11.8498 49.3492C13.6348 49.3492 15.0806 48.075 15.0806 46.5019C15.0806 44.9287 13.6348 43.6545 11.8498 43.6545ZM42.0004 37.9598C40.2154 37.9598 38.7697 39.234 38.7697 40.8071C38.7697 42.3803 40.2154 43.6545 42.0004 43.6545C43.7854 43.6545 45.2311 42.3803 45.2311 40.8071C45.2311 39.234 43.7854 37.9598 42.0004 37.9598ZM21.542 55.044C20.3466 55.044 19.3855 55.8982 19.3855 56.9446C19.3855 57.991 20.3466 58.8452 21.542 58.8452C22.7292 58.8452 23.6904 57.991 23.6904 56.9446C23.6904 55.8982 22.7292 55.044 21.542 55.044Z" fill="#6D420D"/>
<path d="M43.074 7.59593C40.6994 7.59593 38.769 9.29011 38.769 11.39C38.769 13.49 40.6994 15.1842 43.074 15.1842C45.4566 15.1842 47.387 13.49 47.387 11.39C47.387 9.29011 45.4566 7.59593 43.074 7.59593ZM54.9226 17.0848C53.1376 17.0848 51.6919 18.359 51.6919 19.9321C51.6919 21.5053 53.1376 22.7795 54.9226 22.7795C56.7075 22.7795 58.1533 21.5053 58.1533 19.9321C58.1533 18.359 56.7075 17.0848 54.9226 17.0848ZM57.071 5.69531C55.286 5.69531 53.8403 6.96951 53.8403 8.54268C53.8403 10.1158 55.286 11.39 57.071 11.39C58.856 11.39 60.3017 10.1158 60.3017 8.54268C60.3017 6.96951 58.856 5.69531 57.071 5.69531ZM64.6147 26.5736C63.4274 26.5736 62.4582 27.4278 62.4582 28.4742C62.4582 29.5206 63.4274 30.3748 64.6147 30.3748C65.802 30.3748 66.7712 29.5206 66.7712 28.4742C66.7712 27.4278 65.802 26.5736 64.6147 26.5736Z" fill="#7A441D"/>
</svg>
