<svg width="20" height="21" viewBox="0 0 20 21" fill="none" xmlns="http://www.w3.org/2000/svg">
<path fill-rule="evenodd" clip-rule="evenodd" d="M19.1037 7.21834V7.22213C19.5787 8.36594 19.8203 9.58139 19.8203 10.8359C19.8203 16.0729 15.5572 20.3359 10.3203 20.3359C5.08339 20.3359 0.820312 16.0729 0.820312 10.8359C0.820312 5.59899 5.08339 1.33594 10.3203 1.33594C11.3099 1.33594 12.2877 1.49011 13.2186 1.79139C13.2224 1.79139 13.2224 1.79519 13.2224 1.79519H13.2343C13.2476 1.79973 13.2584 1.80784 13.2696 1.81618L13.2801 1.82391L13.2846 1.82703L13.2896 1.83026L13.2923 1.83185L13.2979 1.83483C13.3179 1.84678 13.3418 1.85057 13.3614 1.86632C13.3614 1.86632 13.3614 1.8676 13.3622 1.86868C13.3626 1.86946 13.3636 1.87011 13.3652 1.87011C13.3865 1.89188 13.4019 1.91366 13.4193 1.93833L13.4244 1.94557C13.4267 1.94864 13.4292 1.95155 13.4317 1.9544L13.4372 1.96054C13.4422 1.966 13.4472 1.97146 13.4515 1.97753C13.4548 1.98217 13.4578 1.98718 13.4602 1.9928C13.4665 2.00393 13.4707 2.01607 13.4738 2.02874L13.4754 2.03581L13.4771 2.04446L13.4798 2.06011L13.4834 2.07011L13.4874 2.08044L13.4876 2.08122C13.4942 2.09832 13.5009 2.11601 13.5037 2.13557C13.5037 2.14204 13.5028 2.14862 13.502 2.15544V2.15858C13.5009 2.16745 13.4998 2.17685 13.4998 2.18713C13.4998 2.22295 13.4961 2.25444 13.4879 2.29029V2.29408C13.4833 2.30741 13.4753 2.31955 13.4675 2.33107C13.4614 2.34021 13.4556 2.34895 13.452 2.35759C13.4401 2.38149 13.432 2.40536 13.4162 2.4249C12.9092 3.04269 12.6323 3.81463 12.6323 4.60611C12.6323 6.50175 14.1757 8.04566 16.0719 8.04566C16.9665 8.04566 17.8134 7.70148 18.4588 7.07611C18.4641 7.07168 18.4695 7.06791 18.4748 7.06451C18.4825 7.05964 18.4902 7.05554 18.4979 7.05146C18.5046 7.0479 18.5114 7.04434 18.518 7.04029C18.5419 7.02454 18.5577 7.0088 18.5816 6.99685H18.5896C18.6173 6.98544 18.6494 6.98111 18.6809 6.97731C18.7004 6.97731 18.7205 6.96536 18.74 6.96916C18.7639 6.96916 18.7835 6.97731 18.8073 6.98111C18.835 6.9849 18.8627 6.9887 18.8866 6.99685C18.8969 7.00184 18.9056 7.00871 18.9148 7.0162L18.9198 7.02037L18.9301 7.02834C18.9615 7.04408 18.9892 7.05982 19.0168 7.08372C19.0168 7.08599 19.0168 7.08691 19.0177 7.08728C19.0182 7.08752 19.0192 7.08752 19.0207 7.08752C19.0364 7.10705 19.0483 7.13093 19.0603 7.15482C19.0722 7.17436 19.0918 7.18631 19.1 7.21018C19.1 7.21257 19.1 7.21365 19.1006 7.21477L19.1017 7.21627L19.1037 7.21834ZM3.59105 12.0232C3.59105 12.8982 4.30007 13.6067 5.17457 13.6067C6.04908 13.6067 6.75809 12.8982 6.75809 12.0232C6.75809 11.1481 6.04908 10.4397 5.17457 10.4397C4.2995 10.4397 3.59105 11.1486 3.59105 12.0232ZM7.54901 5.29392C6.89594 5.29392 6.36179 5.82863 6.36179 6.48168C6.36179 7.13475 6.8965 7.66946 7.54901 7.66892C8.20264 7.66892 8.73679 7.13475 8.73679 6.48168C8.73679 5.82807 8.20208 5.29392 7.54901 5.29392ZM9.92457 15.9817C9.92457 16.6353 10.4587 17.1695 11.1118 17.1695C11.7649 17.1695 12.2996 16.6347 12.2996 15.9817C12.2996 15.3286 11.7649 14.7945 11.1118 14.7945C10.4587 14.7945 9.92457 15.3286 9.92457 15.9817ZM10.3203 10.6378C10.3203 11.5129 11.0293 12.2213 11.9038 12.2213C12.7783 12.2213 13.4868 11.5129 13.4874 10.6378C13.4874 9.76272 12.7783 9.05429 11.9038 9.05429C11.0288 9.05429 10.3203 9.76326 10.3203 10.6378Z" fill="#232323"/>
</svg>
