<svg width="" height="" viewBox="0 0 464 144" fill="currentColor" xmlns="http://www.w3.org/2000/svg">
<path d="M142.039 53.9383C141.503 53.9383 140.965 53.911 140.424 53.8553L98.6677 48.438C96.6074 48.2248 94.6652 49.5061 94.0599 51.4848L83.7285 48.3529C85.8341 41.4621 92.5934 37.0078 99.7798 37.7399L141.536 43.1572C143.606 43.3725 145.612 42.2571 146.516 40.3855L148.08 37.1496L98.5416 30.3784C92.5143 29.7032 87.5516 25.0788 86.4748 19.1332L83.9141 4.99219L97.1026 17.2238C97.343 18.5492 98.4066 19.5407 99.7492 19.6909L164.408 28.1572L156.249 45.0488C153.611 50.5081 148.035 53.9383 142.039 53.9383Z" fill="currentColor"/>
<path d="M316.945 53.9383C317.482 53.9383 318.019 53.911 318.561 53.8554L360.317 48.438C362.378 48.2248 364.319 49.5061 364.924 51.4849L375.256 48.353C373.15 41.4621 366.392 37.0078 359.205 37.7399L317.449 43.1572C315.379 43.3725 313.373 42.2571 312.468 40.3856L310.905 37.1496L360.443 30.3784C366.471 29.7032 371.433 25.0788 372.51 19.1332L375.07 4.99219L361.882 17.2238C361.641 18.5492 360.578 19.5407 359.236 19.6909L294.576 28.1571L302.735 45.0488C305.373 50.5081 310.949 53.9383 316.945 53.9383Z" fill="currentColor"/>
<path d="M285.686 53.5391L281.669 45.2244C280.122 42.0217 276.869 39.9853 273.3 39.9853H185.747C182.178 39.9853 178.924 42.0217 177.377 45.2244L173.361 53.5391H161.325L170.584 34.4555C172.135 31.2605 175.383 29.2305 178.947 29.2305H280.087C283.656 29.2305 286.911 31.2683 288.457 34.4727L297.659 53.5391L285.686 53.5391Z" fill="currentColor"/>
<path d="M34.6038 123.228L44.6703 137.281H34.6452L24.9341 123.726H12.738V137.281H4.12305V94.5391H29.5965C41.5656 94.5391 44.6703 103.705 44.6703 108.648C44.6703 114.023 42.3222 121.305 34.6038 123.228ZM36.7175 109.617C36.7175 106.877 35.5959 101.734 29.5944 101.734H12.7348V116.532H30.4422C35.1768 116.532 36.7196 112.357 36.7175 109.617Z" fill="currentColor"/>
<path d="M62.8027 137.281V94.5391H71.4177V137.281H62.8027Z" fill="currentColor"/>
<path d="M138.741 116.572V137.293H130.126V133.05C125.99 136.115 120.518 137.955 114.059 137.955C99.088 137.955 89.377 128.091 89.377 115.921C89.377 103.749 99.088 93.8867 114.059 93.8867C130.129 93.8867 137.001 101.46 137.001 101.46L130.949 106.254C130.949 106.254 126.248 101.412 114.059 101.412C102.921 101.412 98.2529 106.869 98.2529 115.921C98.2529 124.975 102.921 130.431 114.059 130.431C121.42 130.431 125.893 127.997 128.118 123.766H116.481V116.572L138.741 116.572Z" fill="currentColor"/>
<path d="M189.217 94.5391H197.832V137.281H189.217V118.669H165.966V137.281H157.354V94.5391H165.966V111.475H189.217V94.5391Z" fill="currentColor"/>
<path d="M248.867 94.5391V101.734H234.243V137.281H225.632V101.734H211.008V94.5391H248.867Z" fill="currentColor"/>
<path d="M293.542 124.595L300.223 128.833C296 134.359 288.9 137.966 279.864 137.966C264.893 137.966 255.182 128.101 255.182 115.932C255.182 103.764 264.893 93.8984 279.864 93.8984C288.892 93.8984 295.985 97.4984 300.21 103.014L293.529 107.252C291.166 103.517 286.756 101.424 279.867 101.424C268.727 101.424 264.06 106.88 264.06 115.932C264.06 124.987 268.727 130.443 279.867 130.443C286.769 130.443 291.181 128.345 293.542 124.595Z" fill="currentColor"/>
<path d="M338.155 94.5391L353.852 137.281H345.237L341.78 127.868H321.817L318.36 137.281H309.748L325.444 94.5391H338.155ZM339.141 120.676L332.184 101.734H331.418L324.461 120.676H339.141Z" fill="currentColor"/>
<path d="M397.492 123.228L407.559 137.281H397.534L387.823 123.726H375.627V137.281H367.012V94.5391H392.485C404.454 94.5391 407.559 103.705 407.559 108.648C407.559 114.023 405.211 121.305 397.492 123.228ZM399.606 109.617C399.606 106.877 398.485 101.734 392.483 101.734H375.625V116.532H393.331C398.065 116.532 399.608 112.357 399.606 109.617Z" fill="currentColor"/>
<path d="M460.562 125.138C460.562 132.729 453.079 137.968 441.473 137.968C429.863 137.968 418.965 132.434 418.965 132.434L422.498 125.382C422.498 125.382 433.31 130.237 440.709 130.237C448.104 130.237 452.486 128.54 452.486 125.026C452.486 121.513 449.837 119.621 438.798 119.621C427.758 119.621 421.729 115.941 421.729 108.04C421.729 98.5228 429.866 93.918 441.473 93.918C451.863 93.918 458.265 97.6468 458.265 97.6468L455.317 104.789C455.317 104.789 448.051 101.608 440.767 101.608C433.484 101.608 429.887 104.536 429.887 107.256C429.887 109.976 430.566 111.949 443.311 111.949C454.514 111.949 460.562 117.546 460.562 125.138Z" fill="currentColor"/>
</svg>
