<svg width="40" height="41" viewBox="0 0 40 41" fill="none" xmlns="http://www.w3.org/2000/svg">
<path d="M9 8.4375C9 7.92364 9.20413 7.43083 9.56748 7.06748C9.93083 6.70413 10.4236 6.5 10.9375 6.5H38.0625C38.5764 6.5 39.0692 6.70413 39.4325 7.06748C39.7959 7.43083 40 7.92364 40 8.4375C40 8.95136 39.7959 9.44417 39.4325 9.80752C39.0692 10.1709 38.5764 10.375 38.0625 10.375H10.9375C10.4236 10.375 9.93083 10.1709 9.56748 9.80752C9.20413 9.44417 9 8.95136 9 8.4375ZM9 31.6875C9 31.1736 9.20413 30.6808 9.56748 30.3175C9.93083 29.9541 10.4236 29.75 10.9375 29.75H38.0625C38.5764 29.75 39.0692 29.9541 39.4325 30.3175C39.7959 30.6808 40 31.1736 40 31.6875C40 32.2014 39.7959 32.6942 39.4325 33.0575C39.0692 33.4209 38.5764 33.625 38.0625 33.625H10.9375C10.4236 33.625 9.93083 33.4209 9.56748 33.0575C9.20413 32.6942 9 32.2014 9 31.6875ZM22.5625 18.125C22.0486 18.125 21.5558 18.3291 21.1925 18.6925C20.8291 19.0558 20.625 19.5486 20.625 20.0625C20.625 20.5764 20.8291 21.0692 21.1925 21.4325C21.5558 21.7959 22.0486 22 22.5625 22H38.0625C38.5764 22 39.0692 21.7959 39.4325 21.4325C39.7959 21.0692 40 20.5764 40 20.0625C40 19.5486 39.7959 19.0558 39.4325 18.6925C39.0692 18.3291 38.5764 18.125 38.0625 18.125H22.5625Z" fill="#7230FF"/>
</svg>
