<svg width="29" height="23" viewBox="0 0 29 23" fill="none" xmlns="http://www.w3.org/2000/svg">
<path d="M14.5 12.6638C13.6038 12.6638 12.7277 12.3846 11.9826 11.8616C11.2374 11.3386 10.6566 10.5953 10.3137 9.72557C9.97071 8.85587 9.88098 7.89887 10.0558 6.97559C10.2307 6.05232 10.6622 5.20424 11.2959 4.53859C11.9296 3.87295 12.737 3.41964 13.616 3.23599C14.495 3.05234 15.4061 3.14659 16.234 3.50684C17.062 3.86708 17.7697 4.47713 18.2676 5.25985C18.7655 6.04256 19.0313 6.96278 19.0313 7.90415C19.0313 9.16648 18.5539 10.3771 17.7041 11.2697C16.8543 12.1623 15.7018 12.6638 14.5 12.6638ZM14.5 5.04838C13.9623 5.04838 13.4366 5.21587 12.9895 5.52966C12.5424 5.84346 12.194 6.28947 11.9882 6.81129C11.7824 7.33312 11.7286 7.90732 11.8335 8.46128C11.9384 9.01525 12.1973 9.52409 12.5776 9.92348C12.9578 10.3229 13.4422 10.5949 13.9696 10.705C14.497 10.8152 15.0436 10.7587 15.5404 10.5425C16.0372 10.3264 16.4618 9.96036 16.7606 9.49073C17.0593 9.0211 17.2188 8.46897 17.2188 7.90415C17.2188 7.14675 16.9323 6.42037 16.4224 5.88481C15.9126 5.34925 15.2211 5.04838 14.5 5.04838Z" fill="#7230FF"/>
<path d="M22.9596 21.5472C22.7203 21.5439 22.4916 21.4425 22.3223 21.2647C22.153 21.0869 22.0565 20.8467 22.0534 20.5952C22.0534 18.1203 20.7726 16.4703 14.5013 16.4703C8.23005 16.4703 6.94922 18.1203 6.94922 20.5952C6.94922 20.8477 6.85374 21.0898 6.68378 21.2684C6.51383 21.4469 6.28332 21.5472 6.04297 21.5472C5.80262 21.5472 5.57211 21.4469 5.40215 21.2684C5.2322 21.0898 5.13672 20.8477 5.13672 20.5952C5.13672 14.5664 11.698 14.5664 14.5013 14.5664C17.3046 14.5664 23.8659 14.5664 23.8659 20.5952C23.8628 20.8467 23.7663 21.0869 23.597 21.2647C23.4277 21.4425 23.199 21.5439 22.9596 21.5472Z" fill="#7230FF"/>
</svg>
