<svg width="32" height="32" viewBox="0 0 32 32" fill="none" xmlns="http://www.w3.org/2000/svg">
<path d="M28.7472 14.3207L26.9338 12.2141C26.5872 11.8141 26.3072 11.0674 26.3072 10.5341V8.2674C26.3072 6.85406 25.1472 5.69406 23.7338 5.69406H21.4672C20.9472 5.69406 20.1872 5.41406 19.7872 5.0674L17.6805 3.25406C16.7605 2.4674 15.2538 2.4674 14.3205 3.25406L12.2272 5.08073C11.8272 5.41406 11.0672 5.69406 10.5472 5.69406H8.24049C6.82716 5.69406 5.66716 6.85406 5.66716 8.2674V10.5474C5.66716 11.0674 5.38716 11.8141 5.05383 12.2141L3.25383 14.3341C2.48049 15.2541 2.48049 16.7474 3.25383 17.6674L5.05383 19.7874C5.38716 20.1874 5.66716 20.9341 5.66716 21.4541V23.7341C5.66716 25.1474 6.82716 26.3074 8.24049 26.3074H10.5472C11.0672 26.3074 11.8272 26.5874 12.2272 26.9341L14.3338 28.7474C15.2538 29.5341 16.7605 29.5341 17.6938 28.7474L19.8005 26.9341C20.2005 26.5874 20.9472 26.3074 21.4805 26.3074H23.7472C25.1605 26.3074 26.3205 25.1474 26.3205 23.7341V21.4674C26.3205 20.9474 26.6005 20.1874 26.9472 19.7874L28.7605 17.6807C29.5338 16.7607 29.5338 15.2407 28.7472 14.3207ZM21.5472 13.4807L15.1072 19.9207C14.9205 20.1074 14.6672 20.2141 14.4005 20.2141C14.1338 20.2141 13.8805 20.1074 13.6938 19.9207L10.4672 16.6941C10.0805 16.3074 10.0805 15.6674 10.4672 15.2807C10.8538 14.8941 11.4938 14.8941 11.8805 15.2807L14.4005 17.8007L20.1338 12.0674C20.5205 11.6807 21.1605 11.6807 21.5472 12.0674C21.9338 12.4541 21.9338 13.0941 21.5472 13.4807Z" fill="#5120B8"/>
</svg>
