<svg width="24" height="24" viewBox="0 0 24 24" fill="none" xmlns="http://www.w3.org/2000/svg">
<path d="M5.89801 21.1339L5.89798 21.1338C4.31898 20.1289 3.25 18.6793 3.25 17V16.625C3.25 15.9951 3.50022 15.391 3.94562 14.9456C4.39102 14.5002 4.99511 14.25 5.625 14.25H18.375C19.0049 14.25 19.609 14.5002 20.0544 14.9456C20.4998 15.391 20.75 15.9951 20.75 16.625V17C20.75 18.6793 19.681 20.1289 18.102 21.1338C16.5167 22.1426 14.3583 22.75 12 22.75C9.64168 22.75 7.48258 22.1426 5.89801 21.1339ZM15.5355 10.7855C14.5979 11.7232 13.3261 12.25 12 12.25C10.6739 12.25 9.40215 11.7232 8.46447 10.7855C7.52678 9.84785 7 8.57608 7 7.25C7 5.92392 7.52678 4.65215 8.46447 3.71447C9.40215 2.77678 10.6739 2.25 12 2.25C13.3261 2.25 14.5979 2.77678 15.5355 3.71447C16.4732 4.65215 17 5.92392 17 7.25C17 8.57608 16.4732 9.84785 15.5355 10.7855Z" fill="currentColor" stroke="currentColor" stroke-width="0.5"/>
</svg>
