<svg width="24" height="24" viewBox="0 0 24 24" fill="none" xmlns="http://www.w3.org/2000/svg">
<path d="M15.8002 2.21048C15.3902 1.80048 14.6802 2.08048 14.6802 2.65048V6.14048C14.6802 7.60048 15.9202 8.81048 17.4302 8.81048C18.3802 8.82048 19.7002 8.82048 20.8302 8.82048C21.4002 8.82048 21.7002 8.15048 21.3002 7.75048C19.8602 6.30048 17.2802 3.69048 15.8002 2.21048Z" fill="currentColor"/>
<path d="M17.61 10.69H20.5C20.7739 10.69 21 10.9161 21 11.19V16.43C21 18.0923 20.4239 19.3476 19.5277 20.1893C18.6266 21.0356 17.3629 21.5 15.93 21.5H8.07C6.63711 21.5 5.37343 21.0356 4.4723 20.1893C3.57612 19.3476 3 18.0923 3 16.43V7.57C3 5.90766 3.57612 4.65241 4.4723 3.81071C5.37343 2.96436 6.63711 2.5 8.07 2.5H12.31C12.5839 2.5 12.81 2.72614 12.81 3V5.89C12.81 8.53614 14.9639 10.69 17.61 10.69ZM7.5 18.25H11.5C12.1861 18.25 12.75 17.6861 12.75 17C12.75 16.3139 12.1861 15.75 11.5 15.75H7.5C6.81386 15.75 6.25 16.3139 6.25 17C6.25 17.6861 6.81386 18.25 7.5 18.25ZM7.5 14.25H13.5C14.1861 14.25 14.75 13.6861 14.75 13C14.75 12.3139 14.1861 11.75 13.5 11.75H7.5C6.81386 11.75 6.25 12.3139 6.25 13C6.25 13.6861 6.81386 14.25 7.5 14.25Z" fill="currentColor" stroke="currentColor"/>
</svg>
