<svg width="24" height="24" viewBox="0 0 24 24" fill="none" xmlns="http://www.w3.org/2000/svg">
<path d="M20.5398 19.0413C20.3898 19.1913 20.1998 19.2613 20.0098 19.2613C19.8198 19.2613 19.6298 19.1913 19.4798 19.0413L14.5298 14.0913L15.0598 13.5613L15.5898 13.0312L20.5398 17.9812C20.8298 18.2712 20.8298 18.7513 20.5398 19.0413Z" fill="currentColor"/>
<path d="M6.46986 9.27814L12.2699 15.0781C12.6599 15.4681 12.6599 16.0981 12.2699 16.4881L11.3699 17.3981C10.5599 18.1981 9.27986 18.1981 8.47986 17.3981L4.13986 13.0581C3.34986 12.2681 3.34986 10.9781 4.13986 10.1781L5.04986 9.26814C5.43986 8.88814 6.07986 8.88814 6.46986 9.27814Z" fill="currentColor"/>
<path d="M14.4267 13.6357L14.4262 13.6361C14.2215 13.8409 13.8981 13.8409 13.6933 13.6361L7.91332 7.85613C7.70858 7.6514 7.70858 7.32798 7.91332 7.12324L11.7233 3.31324C12.3165 2.72006 13.2908 2.71655 13.8974 3.31443C13.8977 3.31477 13.8981 3.31511 13.8984 3.31546L18.234 7.65101C18.2343 7.65137 18.2347 7.65172 18.235 7.65208C18.8298 8.25545 18.8332 9.22151 18.2341 9.83826L14.4267 13.6357Z" fill="currentColor" stroke="currentColor"/>
<path d="M8 21.25H2C1.86614 21.25 1.75 21.1339 1.75 21C1.75 20.8661 1.86614 20.75 2 20.75H8C8.13386 20.75 8.25 20.8661 8.25 21C8.25 21.1339 8.13386 21.25 8 21.25Z" fill="currentColor" stroke="currentColor"/>
</svg>
