<svg width="24" height="24" viewBox="0 0 24 24" fill="none" xmlns="http://www.w3.org/2000/svg">
<path d="M21.0477 13.3793L22.0746 12.4996H20.7224L9.74944 12.4996C9.68314 12.4996 9.61955 12.4733 9.57267 12.4264C9.52578 12.3795 9.49944 12.3159 9.49944 12.2496C9.49944 12.1833 9.52578 12.1197 9.57267 12.0729C9.61955 12.026 9.68314 11.9996 9.74944 11.9996L20.7214 11.9996H22.0731L21.0468 11.12L19.0868 9.44001L19.0866 9.43982C19.0362 9.39664 19.005 9.33519 18.9998 9.26898C18.9947 9.20278 19.0161 9.13725 19.0593 9.08681C19.1024 9.03637 19.1639 9.00515 19.2301 9.00002C19.2963 8.99489 19.3618 9.01625 19.4122 9.05941C19.4122 9.05942 19.4122 9.05944 19.4123 9.05945L22.912 12.0593L22.9125 12.0596C22.9399 12.0831 22.962 12.1122 22.9771 12.145C22.9922 12.1778 23 12.2135 23 12.2496C23 12.2857 22.9922 12.3214 22.9771 12.3542C22.962 12.387 22.9399 12.4162 22.9125 12.4396L22.912 12.44L19.4123 15.4398C19.4122 15.4398 19.4122 15.4399 19.4122 15.4399C19.3872 15.4612 19.3583 15.4775 19.3271 15.4877C19.2958 15.4979 19.2629 15.5018 19.2301 15.4993C19.1973 15.4967 19.1654 15.4877 19.136 15.4728C19.1067 15.458 19.0806 15.4374 19.0593 15.4125C19.0379 15.3875 19.0216 15.3585 19.0114 15.3273C19.0012 15.296 18.9973 15.2631 18.9998 15.2303C19.0024 15.1975 19.0113 15.1656 19.0262 15.1362C19.0411 15.1069 19.0616 15.0808 19.0866 15.0595L19.0867 15.0593L21.0477 13.3793Z" fill="currentColor" stroke="currentColor"/>
<path d="M15.556 14.419L15.2779 14.8346C15.3323 14.8709 15.379 14.9176 15.4153 14.9719C15.4359 15.0028 15.4644 15.0623 15.4815 15.2294C15.4994 15.4052 15.5 15.6386 15.5 16C15.5 17.4281 15.4989 18.4492 15.3946 19.2251C15.2922 19.9867 15.0986 20.4367 14.7676 20.7672L14.7672 20.7676C14.4367 21.0986 13.9869 21.2922 13.2255 21.3946C12.4497 21.4989 11.4286 21.5 10 21.5H9C7.57197 21.5 6.55113 21.4987 5.77535 21.3942C5.01392 21.2917 4.56357 21.0981 4.23235 20.7672C3.90142 20.4367 3.70784 19.9867 3.60541 19.2251C3.50106 18.4492 3.5 17.4281 3.5 16L3.5 8C3.5 6.57186 3.50106 5.55082 3.60541 4.77489C3.70784 4.01331 3.90142 3.5633 4.23235 3.23275L4.23255 3.23255C4.56374 2.90137 5.01371 2.70781 5.77503 2.60541C6.55082 2.50106 7.57185 2.5 9.001 2.5H10.001C11.4291 2.5 12.4499 2.50106 13.2256 2.60541C13.9869 2.70782 14.4367 2.90138 14.7672 3.23235L14.7676 3.23275C15.0986 3.5633 15.2922 4.01331 15.3946 4.77489C15.4989 5.55082 15.5 6.57186 15.5 8C15.5 8.36142 15.4994 8.59477 15.4815 8.77064C15.4644 8.93799 15.4358 8.9974 15.4152 9.02827L15.4148 9.02885C15.3788 9.08303 15.3324 9.12965 15.2785 9.16608C15.2472 9.18664 15.187 9.21472 15.0209 9.23155C14.8449 9.2494 14.6114 9.25 14.25 9.25H10C9.27065 9.25 8.57118 9.53973 8.05546 10.0555C7.53973 10.5712 7.25 11.2707 7.25 12C7.25 12.7293 7.53973 13.4288 8.05546 13.9445C8.57118 14.4603 9.27065 14.75 10 14.75H14.25C14.6114 14.75 14.8448 14.7506 15.0206 14.7685C15.188 14.7856 15.2474 14.8142 15.2783 14.8348L15.556 14.419ZM15.556 14.419C15.303 14.25 14.952 14.25 14.25 14.25H14.25H10C9.40326 14.25 8.83097 14.0129 8.40901 13.591C7.98705 13.169 7.75 12.5967 7.75 12C7.75 11.4033 7.98705 10.831 8.40901 10.409C8.83097 9.98705 9.40326 9.75 10 9.75H14.25C14.952 9.75 15.303 9.75 15.556 9.582L15.831 9.306C16 9.053 16 8.702 16 8C16 5.172 16 3.757 15.121 2.879C14.243 2 12.829 2 10.001 2H9.001C6.171 2 4.758 2 3.879 2.879C3 3.757 3 5.172 3 8L3 16C3 18.828 3 20.243 3.879 21.121C4.758 21.999 6.172 22 9 22H10C12.829 22 14.243 22 15.121 21.121C16 20.243 16 18.828 16 16C16 15.298 16 14.947 15.831 14.694C15.7582 14.5852 15.6648 14.4918 15.556 14.419Z" fill="currentColor" stroke="currentColor"/>
</svg>
