<svg width="55" height="55" viewBox="0 0 55 55" fill="none" xmlns="http://www.w3.org/2000/svg">
<path fill-rule="evenodd" clip-rule="evenodd" d="M27.4997 6.30078C21.8777 6.30078 16.4859 8.53413 12.5105 12.5095C8.53513 16.4849 6.30178 21.8767 6.30178 27.4987C6.30178 30.8927 7.09928 34.0964 8.51324 36.9358C9.08157 38.077 9.29928 39.4383 8.94178 40.7789L7.57595 45.8779C7.5186 46.0915 7.51848 46.3165 7.5756 46.5301C7.63272 46.7438 7.74507 46.9387 7.90136 47.0952C8.05765 47.2518 8.25237 47.3644 8.46597 47.4218C8.67957 47.4793 8.90453 47.4795 9.11824 47.4225L14.2218 46.0566C15.5115 45.7259 16.8776 45.8783 18.0626 46.4852C20.9939 47.9452 24.2249 48.7024 27.4997 48.6966C33.1217 48.6966 38.5135 46.4633 42.4889 42.4879C46.4643 38.5125 48.6976 33.1207 48.6976 27.4987C48.6976 21.8767 46.4643 16.4849 42.4889 12.5095C38.5135 8.53413 33.1217 6.30078 27.4997 6.30078ZM2.86428 27.4987C2.86428 13.8931 13.8941 2.86328 27.4997 2.86328C41.1053 2.86328 52.1351 13.8931 52.1351 27.4987C52.1351 41.1043 41.1053 52.1341 27.4997 52.1341C23.5626 52.1341 19.8364 51.2083 16.5295 49.5629C16.093 49.334 15.589 49.2689 15.1087 49.3795L10.0074 50.7431C6.51491 51.6781 3.32032 48.4835 4.25532 44.991L5.62116 39.8897C5.73178 39.4094 5.66674 38.9054 5.43782 38.4689C3.74003 35.0615 2.85892 31.3056 2.86428 27.4987ZM27.4997 16.6133C27.9555 16.6133 28.3927 16.7944 28.715 17.1167C29.0374 17.439 29.2184 17.8762 29.2184 18.332V18.3549C31.7141 18.9852 33.8018 20.9514 33.8018 23.6785C33.8018 24.1343 33.6207 24.5715 33.2984 24.8938C32.976 25.2162 32.5389 25.3972 32.083 25.3972C31.6272 25.3972 31.19 25.2162 30.8677 24.8938C30.5454 24.5715 30.3643 24.1343 30.3643 23.6785C30.3643 22.7985 29.388 21.5793 27.4997 21.5793C25.6114 21.5793 24.6351 22.7985 24.6351 23.6785C24.6351 24.5585 25.6114 25.7799 27.4997 25.7799C30.6737 25.7799 33.8018 27.9799 33.8018 31.3189C33.8018 34.046 31.7141 36.0145 29.2184 36.6424V36.6654C29.2184 37.1212 29.0374 37.5584 28.715 37.8807C28.3927 38.203 27.9555 38.3841 27.4997 38.3841C27.0439 38.3841 26.6067 38.203 26.2844 37.8807C25.962 37.5584 25.7809 37.1212 25.7809 36.6654V36.6424C23.2853 36.0145 21.1976 34.046 21.1976 31.3189C21.1976 30.8631 21.3787 30.4259 21.701 30.1036C22.0234 29.7812 22.4605 29.6002 22.9164 29.6002C23.3722 29.6002 23.8094 29.7812 24.1317 30.1036C24.454 30.4259 24.6351 30.8631 24.6351 31.3189C24.6351 32.1989 25.6114 33.4181 27.4997 33.4181C29.388 33.4181 30.3643 32.1989 30.3643 31.3189C30.3643 30.4389 29.388 29.2174 27.4997 29.2174C24.3257 29.2174 21.1976 27.0174 21.1976 23.6785C21.1976 20.9514 23.2853 18.9852 25.7809 18.3549V18.332C25.7809 17.8762 25.962 17.439 26.2844 17.1167C26.6067 16.7944 27.0439 16.6133 27.4997 16.6133Z" fill="#FFB800"/>
</svg>
