<svg width="52" height="50" viewBox="0 0 52 50" fill="none" xmlns="http://www.w3.org/2000/svg">
<path fill-rule="evenodd" clip-rule="evenodd" d="M8.67416 3.135C7.2967 3.13583 5.97591 3.62973 5.0019 4.50821C4.02789 5.3867 3.48029 6.57795 3.47937 7.82032V14.0716C3.47937 14.486 3.29681 14.8836 2.97186 15.1766C2.6469 15.4697 2.20617 15.6344 1.74662 15.6344C1.28706 15.6344 0.846331 15.4697 0.521377 15.1766C0.196423 14.8836 0.0138662 14.486 0.0138662 14.0716V7.82032C0.0138662 5.74803 0.925294 3.757 2.55061 2.28796C3.35611 1.56166 4.31248 0.985734 5.36501 0.593141C6.41754 0.200548 7.54557 -0.00100906 8.68456 3.79847e-06H15.6156C16.0751 3.79847e-06 16.5159 0.164657 16.8408 0.457741C17.1658 0.750825 17.3483 1.14833 17.3483 1.56282C17.3483 1.9773 17.1658 2.37481 16.8408 2.66789C16.5159 2.96097 16.0751 3.12563 15.6156 3.12563H8.68456L8.67416 3.135ZM31.1999 1.57219C31.1999 1.15771 31.3825 0.760202 31.7074 0.467118C32.0324 0.174034 32.4731 0.00938067 32.9327 0.00938067H39.8637C42.1613 0.00938067 44.3688 0.83142 45.9976 2.29734C47.623 3.76326 48.5344 5.73552 48.5344 7.82969V14.0809C48.5344 14.4954 48.3518 14.8929 48.0269 15.186C47.7019 15.4791 47.2612 15.6438 46.8016 15.6438C46.3421 15.6438 45.9013 15.4791 45.5764 15.186C45.2514 14.8929 45.0689 14.4954 45.0689 14.0809V7.82969C45.068 6.58733 44.5204 5.39608 43.5463 4.51759C42.5723 3.63911 41.2515 3.14521 39.8741 3.14438H32.9431C32.4835 3.14438 32.0428 2.97973 31.7178 2.68664C31.3929 2.39356 31.2103 1.99605 31.2103 1.58157L31.1999 1.57219ZM1.74315 28.14C2.20271 28.14 2.64344 28.3046 2.96839 28.5977C3.29335 28.8908 3.4759 29.2883 3.4759 29.7028V35.9541C3.47682 37.1964 4.02442 38.3877 4.99844 39.2662C5.97245 40.1446 7.29323 40.6385 8.67069 40.6394H15.6017C16.0613 40.6394 16.502 40.804 16.8269 41.0971C17.1519 41.3902 17.3345 41.7877 17.3345 42.2022C17.3345 42.6167 17.1519 43.0142 16.8269 43.3073C16.502 43.6003 16.0613 43.765 15.6017 43.765H8.67069C6.37307 43.765 4.16554 42.943 2.53675 41.477C1.73147 40.7505 1.09292 39.888 0.657639 38.9387C0.222355 37.9894 -0.00111879 36.972 4.21151e-06 35.9447V29.6934C4.21151e-06 29.2789 0.182561 28.8814 0.507515 28.5884C0.832469 28.2953 1.2732 28.1306 1.73276 28.1306L1.74315 28.14ZM30.7841 16.1689C30.5539 15.9261 30.2467 15.7527 29.9039 15.6722C29.5611 15.5917 29.1992 15.6079 28.8669 15.7185C28.5346 15.8292 28.2479 16.0291 28.0454 16.2912C27.8429 16.5534 27.7344 16.8652 27.7344 17.1847V45.3153C27.7376 45.6084 27.8316 45.8948 28.006 46.1421C28.1803 46.3894 28.4279 46.5877 28.7208 46.7146C29.0137 46.8415 29.3402 46.8918 29.6632 46.86C29.9862 46.8281 30.2929 46.7153 30.5484 46.5343L37.3755 41.5958L40.3142 48.941C40.3883 49.1374 40.5051 49.3184 40.6576 49.4737C40.8101 49.6289 40.9954 49.7552 41.2025 49.8452C41.4097 49.9352 41.6347 49.9871 41.8644 49.9979C42.094 50.0087 42.3238 49.9781 42.5402 49.908C42.7566 49.8379 42.9554 49.7296 43.125 49.5895C43.2945 49.4494 43.4315 49.2802 43.5278 49.0919C43.6241 48.9036 43.678 48.6998 43.6861 48.4925C43.6942 48.2852 43.6566 48.0786 43.5752 47.8846L40.6677 40.6019H50.2671C50.5984 40.6019 50.9227 40.5163 51.2016 40.3552C51.4806 40.1941 51.7025 39.9642 51.8411 39.6929C51.9797 39.4215 52.0291 39.12 51.9835 38.8241C51.938 38.5282 51.7993 38.2503 51.584 38.0232L30.791 16.1439L30.7841 16.1689ZM38.2349 37.5169H46.4828L31.1999 21.4199V42.0803L37.0566 37.8607C37.3633 37.6387 37.7446 37.5175 38.1379 37.5169H38.2488H38.2349Z" fill="#FFB800"/>
</svg>
