<svg width="55" height="55" viewBox="0 0 55 55" fill="none" xmlns="http://www.w3.org/2000/svg">
<path d="M36.0938 5.21094L34.9662 6.44672C32.4414 9.22594 30.36 10.4686 28.6275 11.2816C26.895 12.0928 25.4392 12.3352 24.0092 13.43C22.4847 14.5988 20.2692 16.84 19.3359 20.8413C17.3353 21.2778 15.8709 22.0444 14.7159 23.043C13.5747 24.0295 12.7153 25.1519 11.6566 26.3739C11.648 26.3877 11.6617 26.4134 11.6566 26.4272C10.1372 28.1734 8.80859 30.0538 6.23047 31.0472L5.15625 31.4769V49.8452H37.9208C39.7994 49.7438 41.1022 48.4427 41.8945 47.1588C42.6852 45.8766 43.1234 44.4878 43.3452 43.3466C43.9158 40.4384 44.9556 32.0664 44.9556 32.0664L45.0106 31.9066V31.745C44.9556 30.5831 44.4778 29.5966 43.8814 28.6822L45.815 22.9364L48.8778 18.3164L49.7372 17.0806L48.608 16.0614L37.3295 6.28516L36.0938 5.21094ZM36.202 9.9375L45.1705 17.7269L42.8072 21.2159L42.6473 21.3792L42.5923 21.6473L41.0352 26.2656C40.2222 25.9305 39.3852 25.695 38.457 25.7294H38.3488L27.5 25.7827H25.7812V32.4428C25.5406 34.3163 24.4991 35.0416 23.2031 35.5589C22.7734 35.7325 22.7202 35.638 22.3438 35.7188V25.7311C22.0619 19.3597 24.3306 17.5258 26.1044 16.1697C26.5942 15.7933 28.0294 15.3584 30.0781 14.3977C31.79 13.5916 33.9178 12.1461 36.202 9.9375ZM19.0145 24.7084C19.0077 25.0986 18.8856 25.3736 18.9062 25.7827V39.5327H20.625C20.625 39.5327 22.4641 39.512 24.4389 38.7266C26.4137 37.9411 28.7959 36.102 29.2188 32.8725V29.2202L38.457 29.1669H38.5103C39.265 29.1246 40.0057 29.3836 40.5696 29.887C41.1335 30.3903 41.4747 31.0969 41.5181 31.8516C41.5112 31.8791 41.4322 32.5167 41.4116 32.6577H34.375V36.0952H40.9819C40.7997 37.4238 40.633 38.2573 40.4439 39.5327H34.375V42.9702H39.9077C39.7046 43.8017 39.3785 44.5983 38.94 45.3334C38.4708 46.0983 38.0669 46.387 37.7059 46.4077H8.59375V33.5703C11.3798 32.0922 13.1123 29.9661 14.233 28.6839C15.3948 27.3536 16.1923 26.3464 16.9727 25.6761C17.4831 25.2395 18.2823 24.9903 19.0145 24.7084Z" fill="#FFB800"/>
</svg>
