<svg width="44" height="44" viewBox="0 0 44 44" fill="none" xmlns="http://www.w3.org/2000/svg">
<rect width="44" height="44" rx="22" fill="#E4E4E4"/>
<path d="M20.45 23.5C20.85 23.9 21.3667 24.096 22 24.088C22.6333 24.08 23.1 23.8507 23.4 23.4L29 15L20.6 20.6C20.15 20.9 19.9127 21.3583 19.888 21.975C19.8633 22.5917 20.0507 23.1 20.45 23.5ZM22 12C22.9833 12 23.9293 12.1373 24.838 12.412C25.7467 12.6867 26.6007 13.0993 27.4 13.65L25.5 14.85C24.95 14.5667 24.3793 14.3543 23.788 14.213C23.1967 14.0717 22.6007 14.0007 22 14C19.7833 14 17.8957 14.7793 16.337 16.338C14.7783 17.8967 13.9993 19.784 14 22C14 22.7 14.096 23.3917 14.288 24.075C14.48 24.7583 14.7507 25.4 15.1 26H28.9C29.2833 25.3667 29.5627 24.7083 29.738 24.025C29.9133 23.3417 30.0007 22.6333 30 21.9C30 21.3 29.929 20.7167 29.787 20.15C29.645 19.5833 29.4327 19.0333 29.15 18.5L30.35 16.6C30.85 17.3833 31.246 18.2167 31.538 19.1C31.83 19.9833 31.984 20.9 32 21.85C32.016 22.8 31.9077 23.7083 31.675 24.575C31.4423 25.4417 31.1007 26.2667 30.65 27.05C30.4667 27.35 30.2167 27.5833 29.9 27.75C29.5833 27.9167 29.25 28 28.9 28H15.1C14.75 28 14.4167 27.9167 14.1 27.75C13.7833 27.5833 13.5333 27.35 13.35 27.05C12.9167 26.3 12.5833 25.5043 12.35 24.663C12.1167 23.8217 12 22.934 12 22C12 20.6167 12.2627 19.321 12.788 18.113C13.3133 16.905 14.03 15.8467 14.938 14.938C15.846 14.0293 16.9083 13.3127 18.125 12.788C19.3417 12.2633 20.6333 12.0007 22 12Z" fill="#5120B8"/>
</svg>
