<svg width="44" height="44" viewBox="0 0 44 44" fill="none" xmlns="http://www.w3.org/2000/svg">
<rect width="44" height="44" rx="22" fill="#E4E4E4"/>
<path d="M15 18C14.4696 18 13.9609 17.7893 13.5858 17.4142C13.2107 17.0391 13 16.5304 13 16C13 15.4696 13.2107 14.9609 13.5858 14.5858C13.9609 14.2107 14.4696 14 15 14C15.5304 14 16.0391 14.2107 16.4142 14.5858C16.7893 14.9609 17 15.4696 17 16C17 16.5304 16.7893 17.0391 16.4142 17.4142C16.0391 17.7893 15.5304 18 15 18ZM15 18V26M22 18C21.4696 18 20.9609 17.7893 20.5858 17.4142C20.2107 17.0391 20 16.5304 20 16C20 15.4696 20.2107 14.9609 20.5858 14.5858C20.9609 14.2107 21.4696 14 22 14C22.5304 14 23.0391 14.2107 23.4142 14.5858C23.7893 14.9609 24 15.4696 24 16C24 16.5304 23.7893 17.0391 23.4142 17.4142C23.0391 17.7893 22.5304 18 22 18ZM22 18V26M15 26C15.5304 26 16.0391 26.2107 16.4142 26.5858C16.7893 26.9609 17 27.4696 17 28C17 28.5304 16.7893 29.0391 16.4142 29.4142C16.0391 29.7893 15.5304 30 15 30C14.4696 30 13.9609 29.7893 13.5858 29.4142C13.2107 29.0391 13 28.5304 13 28C13 27.4696 13.2107 26.9609 13.5858 26.5858C13.9609 26.2107 14.4696 26 15 26ZM22 26C22.5304 26 23.0391 26.2107 23.4142 26.5858C23.7893 26.9609 24 27.4696 24 28C24 28.5304 23.7893 29.0391 23.4142 29.4142C23.0391 29.7893 22.5304 30 22 30C21.4696 30 20.9609 29.7893 20.5858 29.4142C20.2107 29.0391 20 28.5304 20 28C20 27.4696 20.2107 26.9609 20.5858 26.5858C20.9609 26.2107 21.4696 26 22 26ZM27 16C27 16.5304 27.2107 17.0391 27.5858 17.4142C27.9609 17.7893 28.4696 18 29 18C29.5304 18 30.0391 17.7893 30.4142 17.4142C30.7893 17.0391 31 16.5304 31 16C31 15.4696 30.7893 14.9609 30.4142 14.5858C30.0391 14.2107 29.5304 14 29 14C28.4696 14 27.9609 14.2107 27.5858 14.5858C27.2107 14.9609 27 15.4696 27 16Z" stroke="#5120B8" stroke-width="2" stroke-linecap="round" stroke-linejoin="round"/>
<path d="M29 18V20C29 20.5304 28.7893 21.0391 28.4142 21.4142C28.0391 21.7893 27.5304 22 27 22H15" stroke="#5120B8" stroke-width="2" stroke-linecap="round" stroke-linejoin="round"/>
</svg>
