<svg width="44" height="44" viewBox="0 0 44 44" fill="none" xmlns="http://www.w3.org/2000/svg">
<rect width="44" height="44" rx="22" fill="#E4E4E4"/>
<path d="M30.125 19.5625H29.2656L26.5961 16.762C26.4514 16.6091 26.2793 16.4879 26.0896 16.4054C25.9 16.3229 25.6967 16.2807 25.4914 16.2812H22.9375V14.9688H24.5C24.7486 14.9688 24.9871 14.865 25.1629 14.6804C25.3387 14.4958 25.4375 14.2454 25.4375 13.9844C25.4375 13.7233 25.3387 13.4729 25.1629 13.2883C24.9871 13.1037 24.7486 13 24.5 13H19.5C19.2514 13 19.0129 13.1037 18.8371 13.2883C18.6613 13.4729 18.5625 13.7233 18.5625 13.9844C18.5625 14.2454 18.6613 14.4958 18.8371 14.6804C19.0129 14.865 19.2514 14.9688 19.5 14.9688H21.0625V16.2812H16.6875C16.2731 16.2812 15.8757 16.4541 15.5826 16.7618C15.2896 17.0695 15.125 17.4868 15.125 17.9219V21.8594H13.875V20.2188C13.875 19.9577 13.7762 19.7073 13.6004 19.5227C13.4246 19.3381 13.1861 19.2344 12.9375 19.2344C12.6889 19.2344 12.4504 19.3381 12.2746 19.5227C12.0988 19.7073 12 19.9577 12 20.2188V25.4688C12 25.7298 12.0988 25.9802 12.2746 26.1648C12.4504 26.3494 12.6889 26.4531 12.9375 26.4531C13.1861 26.4531 13.4246 26.3494 13.6004 26.1648C13.7762 25.9802 13.875 25.7298 13.875 25.4688V23.8281H15.125V25.1972C15.1244 25.4128 15.1646 25.6263 15.2432 25.8254C15.3218 26.0245 15.4372 26.2052 15.5828 26.3571L18.6539 29.5818C18.7986 29.7347 18.9707 29.8559 19.1604 29.9384C19.35 30.0209 19.5533 30.0631 19.7586 30.0625H25.4914C25.6967 30.0631 25.9 30.0209 26.0896 29.9384C26.2793 29.8559 26.4514 29.7347 26.5961 29.5818L29.2656 26.7812H30.125C30.5394 26.7812 30.9368 26.6084 31.2299 26.3007C31.5229 25.993 31.6875 25.5757 31.6875 25.1406V21.2031C31.6875 20.768 31.5229 20.3507 31.2299 20.043C30.9368 19.7354 30.5394 19.5625 30.125 19.5625ZM29.8125 24.8125H28.875C28.7519 24.8124 28.6299 24.8378 28.5161 24.8872C28.4023 24.9366 28.2988 25.009 28.2117 25.1004L25.3594 28.0938H19.8906L17 25.0586V18.25H25.3594L28.2094 21.2433C28.2968 21.335 28.4006 21.4076 28.5148 21.457C28.629 21.5065 28.7515 21.5317 28.875 21.5312H29.8125V24.8125Z" fill="#5120B8"/>
</svg>
