<svg width="44" height="44" viewBox="0 0 44 44" fill="none" xmlns="http://www.w3.org/2000/svg">
<rect width="44" height="44" rx="22" fill="#E4E4E4"/>
<path d="M15.5 13C14.837 13 14.2011 13.2634 13.7322 13.7322C13.2634 14.2011 13 14.837 13 15.5V18.5C13 19.163 13.2634 19.7989 13.7322 20.2678C14.2011 20.7366 14.837 21 15.5 21C16.163 21 16.7989 20.7366 17.2678 20.2678C17.7366 19.7989 18 19.163 18 18.5V18H20.268C20.489 18.384 20.835 18.687 21.25 18.855V25.145C20.835 25.313 20.49 25.616 20.268 26H18V25.5C18 24.837 17.7366 24.2011 17.2678 23.7322C16.7989 23.2634 16.163 23 15.5 23C14.837 23 14.2011 23.2634 13.7322 23.7322C13.2634 24.2011 13 24.837 13 25.5V28.5C13 29.163 13.2634 29.7989 13.7322 30.2678C14.2011 30.7366 14.837 31 15.5 31C16.163 31 16.7989 30.7366 17.2678 30.2678C17.7366 29.7989 18 29.163 18 28.5V27.5H20.063C20.1735 27.9298 20.4238 28.3106 20.7745 28.5825C21.1251 28.8544 21.5563 29.002 22 29.002C22.4437 29.002 22.8749 28.8544 23.2255 28.5825C23.5762 28.3106 23.8265 27.9298 23.937 27.5H26V28.5C26 29.163 26.2634 29.7989 26.7322 30.2678C27.2011 30.7366 27.837 31 28.5 31C29.163 31 29.7989 30.7366 30.2678 30.2678C30.7366 29.7989 31 29.163 31 28.5V25.5C31 24.837 30.7366 24.2011 30.2678 23.7322C29.7989 23.2634 29.163 23 28.5 23C27.837 23 27.2011 23.2634 26.7322 23.7322C26.2634 24.2011 26 24.837 26 25.5V26H23.732C23.5092 25.6134 23.1635 25.3125 22.75 25.145V18.855C23.165 18.687 23.51 18.384 23.732 18H26V18.5C26 19.163 26.2634 19.7989 26.7322 20.2678C27.2011 20.7366 27.837 21 28.5 21C29.163 21 29.7989 20.7366 30.2678 20.2678C30.7366 19.7989 31 19.163 31 18.5V15.5C31 14.837 30.7366 14.2011 30.2678 13.7322C29.7989 13.2634 29.163 13 28.5 13C27.837 13 27.2011 13.2634 26.7322 13.7322C26.2634 14.2011 26 14.837 26 15.5V16.5H23.937C23.8265 16.0702 23.5762 15.6894 23.2255 15.4175C22.8749 15.1456 22.4437 14.998 22 14.998C21.5563 14.998 21.1251 15.1456 20.7745 15.4175C20.4238 15.6894 20.1735 16.0702 20.063 16.5H18V15.5C18 14.837 17.7366 14.2011 17.2678 13.7322C16.7989 13.2634 16.163 13 15.5 13ZM14.5 15.5C14.5 15.2348 14.6054 14.9804 14.7929 14.7929C14.9804 14.6054 15.2348 14.5 15.5 14.5C15.7652 14.5 16.0196 14.6054 16.2071 14.7929C16.3946 14.9804 16.5 15.2348 16.5 15.5V18.5C16.5 18.7652 16.3946 19.0196 16.2071 19.2071C16.0196 19.3946 15.7652 19.5 15.5 19.5C15.2348 19.5 14.9804 19.3946 14.7929 19.2071C14.6054 19.0196 14.5 18.7652 14.5 18.5V15.5ZM15.5 24.5C15.7652 24.5 16.0196 24.6054 16.2071 24.7929C16.3946 24.9804 16.5 25.2348 16.5 25.5V28.5C16.5 28.7652 16.3946 29.0196 16.2071 29.2071C16.0196 29.3946 15.7652 29.5 15.5 29.5C15.2348 29.5 14.9804 29.3946 14.7929 29.2071C14.6054 29.0196 14.5 28.7652 14.5 28.5V25.5C14.5 25.2348 14.6054 24.9804 14.7929 24.7929C14.9804 24.6054 15.2348 24.5 15.5 24.5ZM27.5 15.5C27.5 15.2348 27.6054 14.9804 27.7929 14.7929C27.9804 14.6054 28.2348 14.5 28.5 14.5C28.7652 14.5 29.0196 14.6054 29.2071 14.7929C29.3946 14.9804 29.5 15.2348 29.5 15.5V18.5C29.5 18.7652 29.3946 19.0196 29.2071 19.2071C29.0196 19.3946 28.7652 19.5 28.5 19.5C28.2348 19.5 27.9804 19.3946 27.7929 19.2071C27.6054 19.0196 27.5 18.7652 27.5 18.5V15.5ZM28.5 24.5C28.7652 24.5 29.0196 24.6054 29.2071 24.7929C29.3946 24.9804 29.5 25.2348 29.5 25.5V28.5C29.5 28.7652 29.3946 29.0196 29.2071 29.2071C29.0196 29.3946 28.7652 29.5 28.5 29.5C28.2348 29.5 27.9804 29.3946 27.7929 29.2071C27.6054 29.0196 27.5 28.7652 27.5 28.5V25.5C27.5 25.2348 27.6054 24.9804 27.7929 24.7929C27.9804 24.6054 28.2348 24.5 28.5 24.5Z" fill="#5120B8"/>
</svg>
