<svg width="44" height="44" viewBox="0 0 44 44" fill="none" xmlns="http://www.w3.org/2000/svg">
<rect width="44" height="44" rx="22" fill="#E4E4E4"/>
<path d="M15.8823 14.5495C15.8823 14.3613 15.9505 14.1808 16.0718 14.0477C16.1932 13.9146 16.3578 13.8398 16.5294 13.8398H23C23.1716 13.8398 23.3362 13.9146 23.4575 14.0477C23.5789 14.1808 23.647 14.3613 23.647 14.5495V21.6463C23.647 21.8345 23.5789 22.015 23.4575 22.1481C23.3362 22.2812 23.1716 22.356 23 22.356H16.5294C16.3578 22.356 16.1932 22.2812 16.0718 22.1481C15.9505 22.015 15.8823 21.8345 15.8823 21.6463V14.5495Z" fill="#5120B8"/>
<path d="M13.2941 13.8387C13.2941 13.0858 13.5668 12.3638 14.0522 11.8314C14.5376 11.2991 15.1959 11 15.8824 11H23.6471C24.3335 11 24.9918 11.2991 25.4772 11.8314C25.9626 12.3638 26.2353 13.0858 26.2353 13.8387V25.1935C26.9217 25.1935 27.5801 25.4926 28.0655 26.025C28.5508 26.5573 28.8235 27.2794 28.8235 28.0323V28.7419C28.8235 28.9302 28.8917 29.1107 29.013 29.2438C29.1344 29.3768 29.299 29.4516 29.4706 29.4516C29.6422 29.4516 29.8068 29.3768 29.9281 29.2438C30.0495 29.1107 30.1176 28.9302 30.1176 28.7419V22.3548H29.4706C29.299 22.3548 29.1344 22.2801 29.013 22.147C28.8917 22.0139 28.8235 21.8334 28.8235 21.6452V17.2097C28.8235 17.0215 28.8917 16.841 29.013 16.7079C29.1344 16.5748 29.299 16.5 29.4706 16.5H31.4053C31.3911 15.8244 31.3367 15.2311 31.1452 14.7655C31.0426 14.4949 30.864 14.2671 30.6353 14.1155C30.3972 13.9594 30.0348 13.8387 29.4706 13.8387C29.299 13.8387 29.1344 13.7639 29.013 13.6308C28.8917 13.4978 28.8235 13.3173 28.8235 13.129C28.8235 12.9408 28.8917 12.7603 29.013 12.6272C29.1344 12.4941 29.299 12.4194 29.4706 12.4194C30.2005 12.4175 30.8096 12.5764 31.2979 12.8963C31.7935 13.2199 32.1184 13.6783 32.3254 14.1836C32.7072 15.1133 32.7059 16.263 32.7059 17.1373V21.6437C32.7061 21.7371 32.6894 21.8295 32.657 21.9158C32.6246 22.002 32.5769 22.0804 32.5168 22.1465C32.4567 22.2125 32.3853 22.2649 32.3067 22.3007C32.2282 22.3364 32.1439 22.3548 32.0588 22.3548H31.4118V28.7419C31.4118 29.3066 31.2072 29.8481 30.8432 30.2474C30.4792 30.6467 29.9854 30.871 29.4706 30.871C28.9558 30.871 28.462 30.6467 28.098 30.2474C27.7339 29.8481 27.5294 29.3066 27.5294 28.7419V28.0323C27.5294 27.6558 27.3931 27.2948 27.1504 27.0286C26.9077 26.7624 26.5785 26.6129 26.2353 26.6129V32.2903H26.8824C27.054 32.2903 27.2185 32.3651 27.3399 32.4982C27.4612 32.6313 27.5294 32.8118 27.5294 33C27.5294 33.1882 27.4612 33.3687 27.3399 33.5018C27.2185 33.6349 27.054 33.7097 26.8824 33.7097H12.6471C12.4754 33.7097 12.3109 33.6349 12.1895 33.5018C12.0682 33.3687 12 33.1882 12 33C12 32.8118 12.0682 32.6313 12.1895 32.4982C12.3109 32.3651 12.4754 32.2903 12.6471 32.2903H13.2941V13.8387ZM24.9412 13.8387C24.9412 13.4623 24.8048 13.1013 24.5621 12.8351C24.3194 12.5689 23.9903 12.4194 23.6471 12.4194H15.8824C15.5391 12.4194 15.21 12.5689 14.9673 12.8351C14.7246 13.1013 14.5882 13.4623 14.5882 13.8387V32.2903H24.9412V13.8387Z" fill="#5120B8"/>
</svg>
