<svg width="32" height="30" viewBox="0 0 32 30" fill="currentColor" xmlns="http://www.w3.org/2000/svg">
<path d="M16.25 7.10128C16.25 7.10128 16.25 7.10128 15.0467 5.51795C13.6533 3.68128 11.595 2.35128 9.125 2.35128C5.1825 2.35128 2 5.53378 2 9.47628C2 10.9488 2.44333 12.3104 3.20333 13.4346C4.48583 15.3504 16.25 27.6846 16.25 27.6846M16.25 7.10128C16.25 7.10128 16.25 7.3619 17.4533 5.51795C18.8467 3.68128 20.905 2.35128 23.375 2.35128C27.3175 2.35128 30.5 5.53378 30.5 9.47628C30.5 10.9488 30.0567 12.3104 29.2967 13.4346C28.0142 15.3504 16.25 27.6846 16.25 27.6846" stroke="" stroke-width="3" stroke-linecap="round" stroke-linejoin="round"/>
</svg>
