<svg width="104" height="74" viewBox="0 0 104 74" fill="none" xmlns="http://www.w3.org/2000/svg">
<g clip-path="url(#clip0_2250_23369)">
<rect width="145.801" height="28" transform="translate(14 -24) rotate(30)" fill="#5120B8"/>
<path d="M45.7812 5.61874C46.735 6.16941 47.3439 6.82273 47.608 7.5787C47.8848 8.33126 47.8085 9.07936 47.3792 9.82298C46.9079 10.6394 46.2858 11.1101 45.5131 11.2351C44.7404 11.3602 43.8771 11.1474 42.9233 10.5967L42.6664 10.5938L41.0781 9.67684L39.3911 12.5988L37.342 11.4158L41.962 3.41374L45.7812 5.61874ZM43.4112 9.05167C43.8154 9.28501 44.1652 9.37918 44.4606 9.33419C44.756 9.28919 45.0063 9.08888 45.2117 8.73323C45.4123 8.38566 45.4583 8.07272 45.3496 7.79439C45.2408 7.51607 44.9844 7.26024 44.5802 7.02691L43.1011 6.17291L41.9321 8.19767L43.4112 9.05167ZM44.3838 10.1952L44.653 15.6368L42.3494 14.3068L42.3234 9.61988L44.3838 10.1952ZM45.3375 16.032L49.9575 8.02991L56.1894 11.6279L55.2584 13.2405L51.1119 10.8465L50.1739 12.4711L53.4717 14.3751L52.5967 15.8907L49.2989 13.9867L48.3539 15.6234L52.658 18.1084L51.727 19.721L45.3375 16.032ZM60.4406 13.9207C61.1842 14.35 61.7713 14.8452 62.2018 15.4063C62.645 15.9639 62.9484 16.5864 63.1121 17.2736L61.3287 18.0384C61.1912 17.474 60.9716 16.9862 60.6702 16.5751C60.3814 16.1605 59.9825 15.8062 59.4732 15.5122C59.1742 15.3396 58.913 15.2319 58.6898 15.1892C58.4665 15.1465 58.2818 15.1585 58.1357 15.225C57.9895 15.2914 57.8744 15.3974 57.7904 15.5429C57.6924 15.7127 57.6852 15.9025 57.7688 16.1124C57.8651 16.3189 58.0678 16.5652 58.3767 16.8514L59.5476 17.9315C60.2404 18.5794 60.6701 19.1885 60.8366 19.7588C61.0031 20.3291 60.916 20.9093 60.5753 21.4994C60.2486 22.0652 59.8255 22.4621 59.3058 22.6902C58.7908 22.9102 58.2204 22.9742 57.5945 22.8823C56.9733 22.7823 56.3353 22.5432 55.6806 22.1652C55.1471 21.8572 54.6706 21.5067 54.2509 21.1135C53.836 20.7123 53.4975 20.2905 53.2355 19.8483C52.9735 19.406 52.7908 18.9665 52.6874 18.5296L54.4988 17.7163C54.5655 18.0673 54.6907 18.4198 54.8743 18.7737C55.0707 19.1242 55.3124 19.4523 55.5993 19.7581C55.8943 20.0685 56.2236 20.3287 56.5874 20.5387C56.8703 20.702 57.121 20.8091 57.3396 20.8598C57.5662 20.9153 57.7567 20.9121 57.9109 20.8502C58.0652 20.7884 58.1866 20.6807 58.2753 20.5271C58.3733 20.3574 58.3943 20.1809 58.3384 19.9978C58.2872 19.8065 58.1152 19.5725 57.8223 19.2957L56.5322 18.1143C56.1402 17.7479 55.8154 17.3771 55.5577 17.0021C55.3128 16.6236 55.1733 16.2305 55.1393 15.8229C55.1099 15.4071 55.2235 14.977 55.4802 14.5324C55.7695 14.0313 56.1636 13.6661 56.6624 13.4367C57.1659 13.1993 57.7416 13.1168 58.3896 13.1892C59.0376 13.2615 59.7212 13.5054 60.4406 13.9207ZM60.0733 24.5397L64.6933 16.5376L70.9252 20.1356L69.9942 21.7482L65.8477 19.3542L64.9097 20.9788L68.2075 22.8828L67.3325 24.3984L64.0347 22.4944L63.0897 24.1312L67.3939 26.6162L66.4629 28.2287L60.0733 24.5397ZM75.7975 22.9487C76.7513 23.4993 77.3602 24.1526 77.6243 24.9086C77.9011 25.6612 77.8248 26.4093 77.3955 27.1529C76.9242 27.9693 76.3021 28.44 75.5294 28.5651C74.7567 28.6901 73.8934 28.4773 72.9396 27.9266L72.6827 27.9238L71.0944 27.0068L69.4074 29.9287L67.3584 28.7457L71.9784 20.7437L75.7975 22.9487ZM73.4275 26.3816C73.8317 26.6149 74.1815 26.7091 74.4769 26.6641C74.7723 26.6191 75.0226 26.4188 75.228 26.0631C75.4286 25.7156 75.4746 25.4026 75.3659 25.1243C75.2571 24.846 75.0007 24.5902 74.5965 24.3568L73.1174 23.5028L71.9484 25.5276L73.4275 26.3816ZM74.4001 27.5251L74.6693 32.9667L72.3657 31.6367L72.3397 26.9498L74.4001 27.5251ZM87.2377 29.5537L79.7806 35.9177L77.3315 34.5037L79.1023 24.8567L81.2968 26.1237L79.9708 31.8083L79.4973 33.6364L80.8177 32.3295L85.1159 28.3287L87.2377 29.5537ZM83.2072 37.896L87.8272 29.894L94.0591 33.492L93.1281 35.1045L88.9815 32.7105L88.0435 34.3352L91.3414 36.2392L90.4664 37.7547L87.1685 35.8507L86.2235 37.4875L90.5277 39.9725L89.5967 41.585L83.2072 37.896ZM98.507 36.06C99.7599 36.7833 100.517 37.6839 100.778 38.7617C101.048 39.8441 100.814 41.0239 100.077 42.301C99.3395 43.5781 98.4347 44.3706 97.3625 44.6784C96.2984 44.9908 95.1399 44.7854 93.887 44.0621L90.4922 42.1021L95.1122 34.1L98.507 36.06ZM94.5909 42.3669C95.2699 42.7589 95.8796 42.8415 96.4201 42.6147C96.9733 42.3845 97.4809 41.8692 97.9429 41.069C98.4049 40.2688 98.595 39.5756 98.5131 38.9895C98.4439 38.3999 98.0699 37.9092 97.3909 37.5172L96.2876 36.8802L93.4876 41.7299L94.5909 42.3669Z" fill="white"/>
</g>
<defs>
<clipPath id="clip0_2250_23369">
<rect width="145.801" height="28" fill="white" transform="translate(14 -24) rotate(30)"/>
</clipPath>
</defs>
</svg>
