<svg width="19" height="19" viewBox="0 0 19 19" fill="none" xmlns="http://www.w3.org/2000/svg">
<path d="M9.5 0C14.7469 0 19 4.25315 19 9.5C19 14.7469 14.7469 19 9.5 19C4.25315 19 0 14.7469 0 9.5C0 4.25315 4.25315 0 9.5 0ZM9.5 1.9C7.48435 1.9 5.55126 2.70071 4.12599 4.12599C2.70071 5.55126 1.9 7.48435 1.9 9.5C1.9 11.5156 2.70071 13.4487 4.12599 14.874C5.55126 16.2993 7.48435 17.1 9.5 17.1C11.5156 17.1 13.4487 16.2993 14.874 14.874C16.2993 13.4487 17.1 11.5156 17.1 9.5C17.1 7.48435 16.2993 5.55126 14.874 4.12599C13.4487 2.70071 11.5156 1.9 9.5 1.9ZM9.5 3.8C9.73269 3.80003 9.95727 3.88546 10.1312 4.04008C10.305 4.1947 10.4161 4.40776 10.4433 4.63885L10.45 4.75V9.1067L13.0216 11.6784C13.192 11.8493 13.2909 12.0787 13.2983 12.32C13.3057 12.5612 13.2209 12.7962 13.0613 12.9773C12.9017 13.1583 12.6791 13.2718 12.4388 13.2947C12.1986 13.3176 11.9586 13.2481 11.7676 13.1005L11.6784 13.0216L8.82835 10.1716C8.6807 10.0239 8.58587 9.83155 8.55855 9.62445L8.55 9.5V4.75C8.55 4.49804 8.65009 4.25641 8.82825 4.07825C9.00641 3.90009 9.24804 3.8 9.5 3.8Z" fill="#FFB800"/>
</svg>
