<svg width="32" height="32" viewBox="0 0 32 32" fill="none" xmlns="http://www.w3.org/2000/svg">
<path d="M28.7467 14.3195L26.9467 12.2128C26.6133 11.8128 26.3333 11.0661 26.3333 10.5328V8.26612C26.3333 6.85279 25.1733 5.69279 23.76 5.69279H21.4933C20.96 5.69279 20.2 5.41279 19.8 5.07945L17.6933 3.27945C16.7733 2.49279 15.2667 2.49279 14.3467 3.27945L12.2133 5.07945C11.8133 5.41279 11.0667 5.69279 10.5333 5.69279H8.22667C6.81334 5.69279 5.65334 6.85279 5.65334 8.26612V10.5328C5.65334 11.0528 5.38667 11.7995 5.05334 12.1995L3.25334 14.3195C2.48001 15.2528 2.48001 16.7461 3.25334 17.6528L5.05334 19.7728C5.38667 20.1595 5.65334 20.9195 5.65334 21.4395V23.7195C5.65334 25.1328 6.81334 26.2928 8.22667 26.2928H10.5467C11.0667 26.2928 11.8267 26.5728 12.2267 26.9061L14.3333 28.7061C15.2533 29.4928 16.76 29.4928 17.68 28.7061L19.7867 26.9061C20.1867 26.5728 20.9333 26.2928 21.4667 26.2928H23.7333C25.1467 26.2928 26.3067 25.1328 26.3067 23.7195V21.4528C26.3067 20.9195 26.5867 20.1728 26.92 19.7728L28.72 17.6661C29.5333 16.7595 29.5333 15.2528 28.7467 14.3195ZM15 10.8395C15 10.2928 15.4533 9.83945 16 9.83945C16.5467 9.83945 17 10.2928 17 10.8395V17.2795C17 17.8261 16.5467 18.2795 16 18.2795C15.4533 18.2795 15 17.8261 15 17.2795V10.8395ZM16 22.4928C15.2667 22.4928 14.6667 21.8928 14.6667 21.1595C14.6667 20.4261 15.2533 19.8261 16 19.8261C16.7333 19.8261 17.3333 20.4261 17.3333 21.1595C17.3333 21.8928 16.7467 22.4928 16 22.4928Z" fill="#5120B8"/>
</svg>
